solid OpenSCAD_Model
  facet normal 1 -0 0
    outer loop
      vertex 66 0 26
      vertex 66 49 0
      vertex 66 49 26
    endloop
  endfacet
  facet normal 1 0 0
    outer loop
      vertex 66 49 0
      vertex 66 0 26
      vertex 66 0 0
    endloop
  endfacet
  facet normal 0 0 1
    outer loop
      vertex 66 49 26
      vertex 64 47 26
      vertex 66 0 26
    endloop
  endfacet
  facet normal 0 0 1
    outer loop
      vertex 66 49 26
      vertex 2 47 26
      vertex 64 47 26
    endloop
  endfacet
  facet normal 0 0 1
    outer loop
      vertex 2 47 26
      vertex 0 49 26
      vertex 2 -20 26
    endloop
  endfacet
  facet normal -0 0 1
    outer loop
      vertex 0 49 26
      vertex 2 47 26
      vertex 66 49 26
    endloop
  endfacet
  facet normal -0 0 1
    outer loop
      vertex 64 2 26
      vertex 66 0 26
      vertex 64 47 26
    endloop
  endfacet
  facet normal 0 0 1
    outer loop
      vertex 64 2 26
      vertex 40 0 26
      vertex 66 0 26
    endloop
  endfacet
  facet normal -0 0 1
    outer loop
      vertex 38 2 26
      vertex 40 0 26
      vertex 64 2 26
    endloop
  endfacet
  facet normal 0 0 1
    outer loop
      vertex 38 -20 26
      vertex 40 0 26
      vertex 38 2 26
    endloop
  endfacet
  facet normal 0 0 1
    outer loop
      vertex 40 0 26
      vertex 38 -20 26
      vertex 40 -22 26
    endloop
  endfacet
  facet normal -0 0 1
    outer loop
      vertex 2 -20 26
      vertex 40 -22 26
      vertex 38 -20 26
    endloop
  endfacet
  facet normal 0 0 1
    outer loop
      vertex 2 -20 26
      vertex 0 -22 26
      vertex 40 -22 26
    endloop
  endfacet
  facet normal 0 0 1
    outer loop
      vertex 0 -22 26
      vertex 2 -20 26
      vertex 0 49 26
    endloop
  endfacet
  facet normal 0 0 -1
    outer loop
      vertex 40 -22 0
      vertex 0 -22 0
      vertex 40 0 0
    endloop
  endfacet
  facet normal 0 0 -1
    outer loop
      vertex 40 0 0
      vertex 66 49 0
      vertex 66 0 0
    endloop
  endfacet
  facet normal 0 0 -1
    outer loop
      vertex 0 49 0
      vertex 40 0 0
      vertex 0 -22 0
    endloop
  endfacet
  facet normal 0 0 -1
    outer loop
      vertex 40 0 0
      vertex 0 49 0
      vertex 66 49 0
    endloop
  endfacet
  facet normal -1 0 0
    outer loop
      vertex 0 -22 0
      vertex 0 49 26
      vertex 0 49 0
    endloop
  endfacet
  facet normal -1 -0 0
    outer loop
      vertex 0 49 26
      vertex 0 -22 0
      vertex 0 -22 26
    endloop
  endfacet
  facet normal 0 1 -0
    outer loop
      vertex 66 49 0
      vertex 0 49 26
      vertex 66 49 26
    endloop
  endfacet
  facet normal 0 1 0
    outer loop
      vertex 0 49 26
      vertex 66 49 0
      vertex 0 49 0
    endloop
  endfacet
  facet normal 0 -1 0
    outer loop
      vertex 40 0 0
      vertex 66 0 26
      vertex 40 0 26
    endloop
  endfacet
  facet normal 0 -1 -0
    outer loop
      vertex 66 0 26
      vertex 40 0 0
      vertex 66 0 0
    endloop
  endfacet
  facet normal 1 -0 0
    outer loop
      vertex 40 -22 26
      vertex 40 0 0
      vertex 40 0 26
    endloop
  endfacet
  facet normal 1 0 0
    outer loop
      vertex 40 0 0
      vertex 40 -22 26
      vertex 40 -22 0
    endloop
  endfacet
  facet normal 0 -1 0
    outer loop
      vertex 13.2725 -22 13.8776
      vertex 0 -22 26
      vertex 12.8911 -22 13.9692
    endloop
  endfacet
  facet normal 0 -1 0
    outer loop
      vertex 0 -22 26
      vertex 25.6089 -22 13.9692
      vertex 26 -22 14
    endloop
  endfacet
  facet normal 0 -1 0
    outer loop
      vertex 25.2275 -22 13.8776
      vertex 0 -22 26
      vertex 13.2725 -22 13.8776
    endloop
  endfacet
  facet normal 0 -1 0
    outer loop
      vertex 0 -22 26
      vertex 25.2275 -22 13.8776
      vertex 25.6089 -22 13.9692
    endloop
  endfacet
  facet normal 0 -1 0
    outer loop
      vertex 13.635 -22 13.7275
      vertex 25.2275 -22 13.8776
      vertex 13.2725 -22 13.8776
    endloop
  endfacet
  facet normal 0 -1 0
    outer loop
      vertex 13.635 -22 13.7275
      vertex 24.865 -22 13.7275
      vertex 25.2275 -22 13.8776
    endloop
  endfacet
  facet normal 0 -1 0
    outer loop
      vertex 13.9695 -22 13.5225
      vertex 24.865 -22 13.7275
      vertex 13.635 -22 13.7275
    endloop
  endfacet
  facet normal 0 -1 0
    outer loop
      vertex 13.9695 -22 13.5225
      vertex 24.5305 -22 13.5225
      vertex 24.865 -22 13.7275
    endloop
  endfacet
  facet normal 0 -1 0
    outer loop
      vertex 14.2678 -22 13.2678
      vertex 24.5305 -22 13.5225
      vertex 13.9695 -22 13.5225
    endloop
  endfacet
  facet normal 0 -1 0
    outer loop
      vertex 14.2678 -22 13.2678
      vertex 24.2322 -22 13.2678
      vertex 24.5305 -22 13.5225
    endloop
  endfacet
  facet normal 0 -1 0
    outer loop
      vertex 14.5225 -22 12.9695
      vertex 24.2322 -22 13.2678
      vertex 14.2678 -22 13.2678
    endloop
  endfacet
  facet normal 0 -1 0
    outer loop
      vertex 14.5225 -22 12.9695
      vertex 23.9775 -22 12.9695
      vertex 24.2322 -22 13.2678
    endloop
  endfacet
  facet normal 0 -1 0
    outer loop
      vertex 14.7275 -22 12.635
      vertex 23.9775 -22 12.9695
      vertex 14.5225 -22 12.9695
    endloop
  endfacet
  facet normal 0 -1 0
    outer loop
      vertex 14.7275 -22 12.635
      vertex 23.7725 -22 12.635
      vertex 23.9775 -22 12.9695
    endloop
  endfacet
  facet normal 0 -1 0
    outer loop
      vertex 14.8776 -22 12.2725
      vertex 23.7725 -22 12.635
      vertex 14.7275 -22 12.635
    endloop
  endfacet
  facet normal 0 -1 0
    outer loop
      vertex 14.8776 -22 12.2725
      vertex 23.6224 -22 12.2725
      vertex 23.7725 -22 12.635
    endloop
  endfacet
  facet normal 0 -1 0
    outer loop
      vertex 14.9692 -22 11.8911
      vertex 23.6224 -22 12.2725
      vertex 14.8776 -22 12.2725
    endloop
  endfacet
  facet normal 0 -1 0
    outer loop
      vertex 14.9692 -22 11.8911
      vertex 23.5308 -22 11.8911
      vertex 23.6224 -22 12.2725
    endloop
  endfacet
  facet normal 0 -1 0
    outer loop
      vertex 15 -22 11.5
      vertex 23.5308 -22 11.8911
      vertex 14.9692 -22 11.8911
    endloop
  endfacet
  facet normal 0 -1 0
    outer loop
      vertex 15 -22 11.5
      vertex 23.5 -22 11.5
      vertex 23.5308 -22 11.8911
    endloop
  endfacet
  facet normal 0 -1 0
    outer loop
      vertex 14.9692 -22 11.1089
      vertex 23.5 -22 11.5
      vertex 15 -22 11.5
    endloop
  endfacet
  facet normal 0 -1 0
    outer loop
      vertex 14.9692 -22 11.1089
      vertex 23.5308 -22 11.1089
      vertex 23.5 -22 11.5
    endloop
  endfacet
  facet normal 0 -1 0
    outer loop
      vertex 14.8776 -22 10.7275
      vertex 23.5308 -22 11.1089
      vertex 14.9692 -22 11.1089
    endloop
  endfacet
  facet normal 0 -1 0
    outer loop
      vertex 14.8776 -22 10.7275
      vertex 23.6224 -22 10.7275
      vertex 23.5308 -22 11.1089
    endloop
  endfacet
  facet normal 0 -1 0
    outer loop
      vertex 14.7275 -22 10.365
      vertex 23.6224 -22 10.7275
      vertex 14.8776 -22 10.7275
    endloop
  endfacet
  facet normal 0 -1 0
    outer loop
      vertex 14.7275 -22 10.365
      vertex 23.7725 -22 10.365
      vertex 23.6224 -22 10.7275
    endloop
  endfacet
  facet normal 0 -1 0
    outer loop
      vertex 14.5225 -22 10.0305
      vertex 23.7725 -22 10.365
      vertex 14.7275 -22 10.365
    endloop
  endfacet
  facet normal 0 -1 0
    outer loop
      vertex 14.5225 -22 10.0305
      vertex 23.9775 -22 10.0305
      vertex 23.7725 -22 10.365
    endloop
  endfacet
  facet normal 0 -1 0
    outer loop
      vertex 14.2678 -22 9.73223
      vertex 23.9775 -22 10.0305
      vertex 14.5225 -22 10.0305
    endloop
  endfacet
  facet normal 0 -1 0
    outer loop
      vertex 14.2678 -22 9.73223
      vertex 24.2322 -22 9.73223
      vertex 23.9775 -22 10.0305
    endloop
  endfacet
  facet normal 0 -1 0
    outer loop
      vertex 13.9695 -22 9.47746
      vertex 24.2322 -22 9.73223
      vertex 14.2678 -22 9.73223
    endloop
  endfacet
  facet normal 0 -1 0
    outer loop
      vertex 13.9695 -22 9.47746
      vertex 24.5305 -22 9.47746
      vertex 24.2322 -22 9.73223
    endloop
  endfacet
  facet normal 0 -1 0
    outer loop
      vertex 13.635 -22 9.27248
      vertex 24.5305 -22 9.47746
      vertex 13.9695 -22 9.47746
    endloop
  endfacet
  facet normal 0 -1 0
    outer loop
      vertex 13.635 -22 9.27248
      vertex 24.865 -22 9.27248
      vertex 24.5305 -22 9.47746
    endloop
  endfacet
  facet normal 0 -1 0
    outer loop
      vertex 13.2725 -22 9.12236
      vertex 24.865 -22 9.27248
      vertex 13.635 -22 9.27248
    endloop
  endfacet
  facet normal 0 -1 0
    outer loop
      vertex 13.2725 -22 9.12236
      vertex 25.2275 -22 9.12236
      vertex 24.865 -22 9.27248
    endloop
  endfacet
  facet normal 0 -1 0
    outer loop
      vertex 0 -22 0
      vertex 13.2725 -22 9.12236
      vertex 12.8911 -22 9.03078
    endloop
  endfacet
  facet normal 0 -1 -0
    outer loop
      vertex 13.2725 -22 9.12236
      vertex 0 -22 0
      vertex 25.2275 -22 9.12236
    endloop
  endfacet
  facet normal 0 -1 0
    outer loop
      vertex 0 -22 0
      vertex 12.8911 -22 9.03078
      vertex 12.5 -22 9
    endloop
  endfacet
  facet normal 0 -1 -0
    outer loop
      vertex 25.2275 -22 9.12236
      vertex 0 -22 0
      vertex 25.6089 -22 9.03078
    endloop
  endfacet
  facet normal 0 -1 0
    outer loop
      vertex 12.8911 -22 13.9692
      vertex 0 -22 26
      vertex 12.5 -22 14
    endloop
  endfacet
  facet normal 0 -1 0
    outer loop
      vertex 0 -22 26
      vertex 12.1089 -22 13.9692
      vertex 12.5 -22 14
    endloop
  endfacet
  facet normal 0 -1 0
    outer loop
      vertex 0 -22 26
      vertex 11.7275 -22 13.8776
      vertex 12.1089 -22 13.9692
    endloop
  endfacet
  facet normal 0 -1 0
    outer loop
      vertex 0 -22 26
      vertex 11.365 -22 13.7275
      vertex 11.7275 -22 13.8776
    endloop
  endfacet
  facet normal 0 -1 0
    outer loop
      vertex 0 -22 26
      vertex 11.0305 -22 13.5225
      vertex 11.365 -22 13.7275
    endloop
  endfacet
  facet normal 0 -1 0
    outer loop
      vertex 0 -22 26
      vertex 10.7322 -22 13.2678
      vertex 11.0305 -22 13.5225
    endloop
  endfacet
  facet normal 0 -1 0
    outer loop
      vertex 0 -22 26
      vertex 10.4775 -22 12.9695
      vertex 10.7322 -22 13.2678
    endloop
  endfacet
  facet normal 0 -1 0
    outer loop
      vertex 0 -22 26
      vertex 10.2725 -22 12.635
      vertex 10.4775 -22 12.9695
    endloop
  endfacet
  facet normal 0 -1 0
    outer loop
      vertex 0 -22 26
      vertex 10.1224 -22 12.2725
      vertex 10.2725 -22 12.635
    endloop
  endfacet
  facet normal 0 -1 0
    outer loop
      vertex 0 -22 26
      vertex 10.0308 -22 11.8911
      vertex 10.1224 -22 12.2725
    endloop
  endfacet
  facet normal 0 -1 0
    outer loop
      vertex 0 -22 0
      vertex 10.0308 -22 11.8911
      vertex 0 -22 26
    endloop
  endfacet
  facet normal 0 -1 0
    outer loop
      vertex 10.0308 -22 11.8911
      vertex 0 -22 0
      vertex 10 -22 11.5
    endloop
  endfacet
  facet normal 0 -1 -0
    outer loop
      vertex 10 -22 11.5
      vertex 0 -22 0
      vertex 10.0308 -22 11.1089
    endloop
  endfacet
  facet normal 0 -1 -0
    outer loop
      vertex 10.0308 -22 11.1089
      vertex 0 -22 0
      vertex 10.1224 -22 10.7275
    endloop
  endfacet
  facet normal 0 -1 -0
    outer loop
      vertex 10.1224 -22 10.7275
      vertex 0 -22 0
      vertex 10.2725 -22 10.365
    endloop
  endfacet
  facet normal 0 -1 0
    outer loop
      vertex 40 -22 0
      vertex 25.6089 -22 9.03078
      vertex 0 -22 0
    endloop
  endfacet
  facet normal 0 -1 -0
    outer loop
      vertex 12.1089 -22 9.03078
      vertex 0 -22 0
      vertex 12.5 -22 9
    endloop
  endfacet
  facet normal 0 -1 -0
    outer loop
      vertex 11.7275 -22 9.12236
      vertex 0 -22 0
      vertex 12.1089 -22 9.03078
    endloop
  endfacet
  facet normal 0 -1 -0
    outer loop
      vertex 11.365 -22 9.27248
      vertex 0 -22 0
      vertex 11.7275 -22 9.12236
    endloop
  endfacet
  facet normal 0 -1 -0
    outer loop
      vertex 11.0305 -22 9.47746
      vertex 0 -22 0
      vertex 11.365 -22 9.27248
    endloop
  endfacet
  facet normal 0 -1 -0
    outer loop
      vertex 10.7322 -22 9.73223
      vertex 0 -22 0
      vertex 11.0305 -22 9.47746
    endloop
  endfacet
  facet normal 0 -1 -0
    outer loop
      vertex 10.4775 -22 10.0305
      vertex 0 -22 0
      vertex 10.7322 -22 9.73223
    endloop
  endfacet
  facet normal 0 -1 -0
    outer loop
      vertex 10.2725 -22 10.365
      vertex 0 -22 0
      vertex 10.4775 -22 10.0305
    endloop
  endfacet
  facet normal 0 -1 0
    outer loop
      vertex 0 -22 26
      vertex 26 -22 14
      vertex 40 -22 26
    endloop
  endfacet
  facet normal 0 -1 0
    outer loop
      vertex 26.3911 -22 13.9692
      vertex 40 -22 26
      vertex 26 -22 14
    endloop
  endfacet
  facet normal 0 -1 0
    outer loop
      vertex 26.7725 -22 13.8776
      vertex 40 -22 26
      vertex 26.3911 -22 13.9692
    endloop
  endfacet
  facet normal 0 -1 0
    outer loop
      vertex 27.135 -22 13.7275
      vertex 40 -22 26
      vertex 26.7725 -22 13.8776
    endloop
  endfacet
  facet normal 0 -1 0
    outer loop
      vertex 27.4695 -22 13.5225
      vertex 40 -22 26
      vertex 27.135 -22 13.7275
    endloop
  endfacet
  facet normal 0 -1 0
    outer loop
      vertex 27.7678 -22 13.2678
      vertex 40 -22 26
      vertex 27.4695 -22 13.5225
    endloop
  endfacet
  facet normal 0 -1 0
    outer loop
      vertex 28.0225 -22 12.9695
      vertex 40 -22 26
      vertex 27.7678 -22 13.2678
    endloop
  endfacet
  facet normal 0 -1 0
    outer loop
      vertex 28.2275 -22 12.635
      vertex 40 -22 26
      vertex 28.0225 -22 12.9695
    endloop
  endfacet
  facet normal 0 -1 0
    outer loop
      vertex 28.3776 -22 12.2725
      vertex 40 -22 26
      vertex 28.2275 -22 12.635
    endloop
  endfacet
  facet normal 0 -1 0
    outer loop
      vertex 28.4692 -22 11.8911
      vertex 40 -22 26
      vertex 28.3776 -22 12.2725
    endloop
  endfacet
  facet normal 0 -1 0
    outer loop
      vertex 40 -22 0
      vertex 28.4692 -22 11.8911
      vertex 28.5 -22 11.5
    endloop
  endfacet
  facet normal 0 -1 0
    outer loop
      vertex 40 -22 0
      vertex 28.5 -22 11.5
      vertex 28.4692 -22 11.1089
    endloop
  endfacet
  facet normal 0 -1 0
    outer loop
      vertex 40 -22 0
      vertex 28.4692 -22 11.1089
      vertex 28.3776 -22 10.7275
    endloop
  endfacet
  facet normal 0 -1 0
    outer loop
      vertex 40 -22 0
      vertex 28.3776 -22 10.7275
      vertex 28.2275 -22 10.365
    endloop
  endfacet
  facet normal 0 -1 0
    outer loop
      vertex 40 -22 0
      vertex 28.2275 -22 10.365
      vertex 28.0225 -22 10.0305
    endloop
  endfacet
  facet normal 0 -1 0
    outer loop
      vertex 25.6089 -22 9.03078
      vertex 40 -22 0
      vertex 26 -22 9
    endloop
  endfacet
  facet normal 0 -1 0
    outer loop
      vertex 26 -22 9
      vertex 40 -22 0
      vertex 26.3911 -22 9.03078
    endloop
  endfacet
  facet normal 0 -1 0
    outer loop
      vertex 28.4692 -22 11.8911
      vertex 40 -22 0
      vertex 40 -22 26
    endloop
  endfacet
  facet normal 0 -1 0
    outer loop
      vertex 27.7678 -22 9.73223
      vertex 40 -22 0
      vertex 28.0225 -22 10.0305
    endloop
  endfacet
  facet normal 0 -1 0
    outer loop
      vertex 27.4695 -22 9.47746
      vertex 40 -22 0
      vertex 27.7678 -22 9.73223
    endloop
  endfacet
  facet normal 0 -1 0
    outer loop
      vertex 27.135 -22 9.27248
      vertex 40 -22 0
      vertex 27.4695 -22 9.47746
    endloop
  endfacet
  facet normal 0 -1 0
    outer loop
      vertex 26.7725 -22 9.12236
      vertex 40 -22 0
      vertex 27.135 -22 9.27248
    endloop
  endfacet
  facet normal 0 -1 0
    outer loop
      vertex 26.3911 -22 9.03078
      vertex 40 -22 0
      vertex 26.7725 -22 9.12236
    endloop
  endfacet
  facet normal -1 0 0
    outer loop
      vertex 64 2 2
      vertex 64 47 26
      vertex 64 47 2
    endloop
  endfacet
  facet normal -1 -0 0
    outer loop
      vertex 64 47 26
      vertex 64 2 2
      vertex 64 2 26
    endloop
  endfacet
  facet normal 0 0 1
    outer loop
      vertex 64 47 2
      vertex 38 2 2
      vertex 64 2 2
    endloop
  endfacet
  facet normal -0 0 1
    outer loop
      vertex 2 47 2
      vertex 38 2 2
      vertex 64 47 2
    endloop
  endfacet
  facet normal 0 0 1
    outer loop
      vertex 2 -20 2
      vertex 38 2 2
      vertex 2 47 2
    endloop
  endfacet
  facet normal 0 0 1
    outer loop
      vertex 38 2 2
      vertex 2 -20 2
      vertex 38 -20 2
    endloop
  endfacet
  facet normal 1 -0 0
    outer loop
      vertex 2 -20 26
      vertex 2 47 2
      vertex 2 47 26
    endloop
  endfacet
  facet normal 1 0 0
    outer loop
      vertex 2 47 2
      vertex 2 -20 26
      vertex 2 -20 2
    endloop
  endfacet
  facet normal 0 -1 0
    outer loop
      vertex 2 47 2
      vertex 64 47 26
      vertex 2 47 26
    endloop
  endfacet
  facet normal 0 -1 -0
    outer loop
      vertex 64 47 26
      vertex 2 47 2
      vertex 64 47 2
    endloop
  endfacet
  facet normal 0 1 -0
    outer loop
      vertex 64 2 2
      vertex 38 2 26
      vertex 64 2 26
    endloop
  endfacet
  facet normal 0 1 0
    outer loop
      vertex 38 2 26
      vertex 64 2 2
      vertex 38 2 2
    endloop
  endfacet
  facet normal -1 0 0
    outer loop
      vertex 38 -20 2
      vertex 38 2 26
      vertex 38 2 2
    endloop
  endfacet
  facet normal -1 -0 0
    outer loop
      vertex 38 2 26
      vertex 38 -20 2
      vertex 38 -20 26
    endloop
  endfacet
  facet normal 0 1 0
    outer loop
      vertex 38 -20 26
      vertex 25.2275 -20 13.8776
      vertex 2 -20 26
    endloop
  endfacet
  facet normal 0 1 0
    outer loop
      vertex 2 -20 26
      vertex 12.8911 -20 13.9692
      vertex 12.5 -20 14
    endloop
  endfacet
  facet normal 0 1 -0
    outer loop
      vertex 13.2725 -20 13.8776
      vertex 2 -20 26
      vertex 25.2275 -20 13.8776
    endloop
  endfacet
  facet normal 0 1 0
    outer loop
      vertex 2 -20 26
      vertex 13.2725 -20 13.8776
      vertex 12.8911 -20 13.9692
    endloop
  endfacet
  facet normal 0 1 -0
    outer loop
      vertex 24.865 -20 13.7275
      vertex 13.2725 -20 13.8776
      vertex 25.2275 -20 13.8776
    endloop
  endfacet
  facet normal 0 1 0
    outer loop
      vertex 24.865 -20 13.7275
      vertex 13.635 -20 13.7275
      vertex 13.2725 -20 13.8776
    endloop
  endfacet
  facet normal 0 1 -0
    outer loop
      vertex 24.5305 -20 13.5225
      vertex 13.635 -20 13.7275
      vertex 24.865 -20 13.7275
    endloop
  endfacet
  facet normal 0 1 0
    outer loop
      vertex 24.5305 -20 13.5225
      vertex 13.9695 -20 13.5225
      vertex 13.635 -20 13.7275
    endloop
  endfacet
  facet normal 0 1 -0
    outer loop
      vertex 24.2322 -20 13.2678
      vertex 13.9695 -20 13.5225
      vertex 24.5305 -20 13.5225
    endloop
  endfacet
  facet normal 0 1 0
    outer loop
      vertex 24.2322 -20 13.2678
      vertex 14.2678 -20 13.2678
      vertex 13.9695 -20 13.5225
    endloop
  endfacet
  facet normal 0 1 -0
    outer loop
      vertex 23.9775 -20 12.9695
      vertex 14.2678 -20 13.2678
      vertex 24.2322 -20 13.2678
    endloop
  endfacet
  facet normal 0 1 0
    outer loop
      vertex 23.9775 -20 12.9695
      vertex 14.5225 -20 12.9695
      vertex 14.2678 -20 13.2678
    endloop
  endfacet
  facet normal 0 1 -0
    outer loop
      vertex 23.7725 -20 12.635
      vertex 14.5225 -20 12.9695
      vertex 23.9775 -20 12.9695
    endloop
  endfacet
  facet normal 0 1 0
    outer loop
      vertex 23.7725 -20 12.635
      vertex 14.7275 -20 12.635
      vertex 14.5225 -20 12.9695
    endloop
  endfacet
  facet normal 0 1 -0
    outer loop
      vertex 23.6224 -20 12.2725
      vertex 14.7275 -20 12.635
      vertex 23.7725 -20 12.635
    endloop
  endfacet
  facet normal 0 1 0
    outer loop
      vertex 23.6224 -20 12.2725
      vertex 14.8776 -20 12.2725
      vertex 14.7275 -20 12.635
    endloop
  endfacet
  facet normal 0 1 -0
    outer loop
      vertex 23.5308 -20 11.8911
      vertex 14.8776 -20 12.2725
      vertex 23.6224 -20 12.2725
    endloop
  endfacet
  facet normal 0 1 0
    outer loop
      vertex 23.5308 -20 11.8911
      vertex 14.9692 -20 11.8911
      vertex 14.8776 -20 12.2725
    endloop
  endfacet
  facet normal 0 1 -0
    outer loop
      vertex 23.5 -20 11.5
      vertex 14.9692 -20 11.8911
      vertex 23.5308 -20 11.8911
    endloop
  endfacet
  facet normal 0 1 0
    outer loop
      vertex 23.5 -20 11.5
      vertex 15 -20 11.5
      vertex 14.9692 -20 11.8911
    endloop
  endfacet
  facet normal 0 1 0
    outer loop
      vertex 23.5308 -20 11.1089
      vertex 15 -20 11.5
      vertex 23.5 -20 11.5
    endloop
  endfacet
  facet normal 0 1 0
    outer loop
      vertex 23.5308 -20 11.1089
      vertex 14.9692 -20 11.1089
      vertex 15 -20 11.5
    endloop
  endfacet
  facet normal 0 1 0
    outer loop
      vertex 23.6224 -20 10.7275
      vertex 14.9692 -20 11.1089
      vertex 23.5308 -20 11.1089
    endloop
  endfacet
  facet normal 0 1 0
    outer loop
      vertex 23.6224 -20 10.7275
      vertex 14.8776 -20 10.7275
      vertex 14.9692 -20 11.1089
    endloop
  endfacet
  facet normal 0 1 0
    outer loop
      vertex 23.7725 -20 10.365
      vertex 14.8776 -20 10.7275
      vertex 23.6224 -20 10.7275
    endloop
  endfacet
  facet normal 0 1 0
    outer loop
      vertex 23.7725 -20 10.365
      vertex 14.7275 -20 10.365
      vertex 14.8776 -20 10.7275
    endloop
  endfacet
  facet normal 0 1 0
    outer loop
      vertex 23.9775 -20 10.0305
      vertex 14.7275 -20 10.365
      vertex 23.7725 -20 10.365
    endloop
  endfacet
  facet normal 0 1 0
    outer loop
      vertex 23.9775 -20 10.0305
      vertex 14.5225 -20 10.0305
      vertex 14.7275 -20 10.365
    endloop
  endfacet
  facet normal 0 1 0
    outer loop
      vertex 24.2322 -20 9.73223
      vertex 14.5225 -20 10.0305
      vertex 23.9775 -20 10.0305
    endloop
  endfacet
  facet normal 0 1 0
    outer loop
      vertex 24.2322 -20 9.73223
      vertex 14.2678 -20 9.73223
      vertex 14.5225 -20 10.0305
    endloop
  endfacet
  facet normal 0 1 0
    outer loop
      vertex 24.5305 -20 9.47746
      vertex 14.2678 -20 9.73223
      vertex 24.2322 -20 9.73223
    endloop
  endfacet
  facet normal 0 1 0
    outer loop
      vertex 24.5305 -20 9.47746
      vertex 13.9695 -20 9.47746
      vertex 14.2678 -20 9.73223
    endloop
  endfacet
  facet normal 0 1 0
    outer loop
      vertex 24.865 -20 9.27248
      vertex 13.9695 -20 9.47746
      vertex 24.5305 -20 9.47746
    endloop
  endfacet
  facet normal 0 1 0
    outer loop
      vertex 24.865 -20 9.27248
      vertex 13.635 -20 9.27248
      vertex 13.9695 -20 9.47746
    endloop
  endfacet
  facet normal 0 1 0
    outer loop
      vertex 25.2275 -20 9.12236
      vertex 13.635 -20 9.27248
      vertex 24.865 -20 9.27248
    endloop
  endfacet
  facet normal 0 1 0
    outer loop
      vertex 25.2275 -20 9.12236
      vertex 13.2725 -20 9.12236
      vertex 13.635 -20 9.27248
    endloop
  endfacet
  facet normal 0 1 0
    outer loop
      vertex 2 -20 2
      vertex 25.2275 -20 9.12236
      vertex 25.6089 -20 9.03078
    endloop
  endfacet
  facet normal 0 1 0
    outer loop
      vertex 25.2275 -20 9.12236
      vertex 2 -20 2
      vertex 13.2725 -20 9.12236
    endloop
  endfacet
  facet normal 0 1 0
    outer loop
      vertex 38 -20 2
      vertex 25.6089 -20 9.03078
      vertex 26 -20 9
    endloop
  endfacet
  facet normal 0 1 0
    outer loop
      vertex 13.2725 -20 9.12236
      vertex 2 -20 2
      vertex 12.8911 -20 9.03078
    endloop
  endfacet
  facet normal 0 1 0
    outer loop
      vertex 25.6089 -20 13.9692
      vertex 38 -20 26
      vertex 26 -20 14
    endloop
  endfacet
  facet normal 0 1 0
    outer loop
      vertex 38 -20 26
      vertex 26.3911 -20 13.9692
      vertex 26 -20 14
    endloop
  endfacet
  facet normal 0 1 0
    outer loop
      vertex 38 -20 26
      vertex 26.7725 -20 13.8776
      vertex 26.3911 -20 13.9692
    endloop
  endfacet
  facet normal 0 1 0
    outer loop
      vertex 38 -20 26
      vertex 27.135 -20 13.7275
      vertex 26.7725 -20 13.8776
    endloop
  endfacet
  facet normal 0 1 0
    outer loop
      vertex 38 -20 26
      vertex 27.4695 -20 13.5225
      vertex 27.135 -20 13.7275
    endloop
  endfacet
  facet normal 0 1 0
    outer loop
      vertex 38 -20 26
      vertex 27.7678 -20 13.2678
      vertex 27.4695 -20 13.5225
    endloop
  endfacet
  facet normal 0 1 0
    outer loop
      vertex 38 -20 26
      vertex 28.0225 -20 12.9695
      vertex 27.7678 -20 13.2678
    endloop
  endfacet
  facet normal 0 1 0
    outer loop
      vertex 38 -20 26
      vertex 28.2275 -20 12.635
      vertex 28.0225 -20 12.9695
    endloop
  endfacet
  facet normal 0 1 0
    outer loop
      vertex 38 -20 26
      vertex 28.3776 -20 12.2725
      vertex 28.2275 -20 12.635
    endloop
  endfacet
  facet normal 0 1 0
    outer loop
      vertex 38 -20 26
      vertex 28.4692 -20 11.8911
      vertex 28.3776 -20 12.2725
    endloop
  endfacet
  facet normal 0 1 -0
    outer loop
      vertex 38 -20 2
      vertex 28.4692 -20 11.8911
      vertex 38 -20 26
    endloop
  endfacet
  facet normal 0 1 0
    outer loop
      vertex 28.4692 -20 11.8911
      vertex 38 -20 2
      vertex 28.5 -20 11.5
    endloop
  endfacet
  facet normal 0 1 0
    outer loop
      vertex 28.5 -20 11.5
      vertex 38 -20 2
      vertex 28.4692 -20 11.1089
    endloop
  endfacet
  facet normal 0 1 0
    outer loop
      vertex 28.4692 -20 11.1089
      vertex 38 -20 2
      vertex 28.3776 -20 10.7275
    endloop
  endfacet
  facet normal 0 1 0
    outer loop
      vertex 28.3776 -20 10.7275
      vertex 38 -20 2
      vertex 28.2275 -20 10.365
    endloop
  endfacet
  facet normal 0 1 0
    outer loop
      vertex 25.6089 -20 9.03078
      vertex 38 -20 2
      vertex 2 -20 2
    endloop
  endfacet
  facet normal 0 1 0
    outer loop
      vertex 26.3911 -20 9.03078
      vertex 38 -20 2
      vertex 26 -20 9
    endloop
  endfacet
  facet normal 0 1 0
    outer loop
      vertex 26.7725 -20 9.12236
      vertex 38 -20 2
      vertex 26.3911 -20 9.03078
    endloop
  endfacet
  facet normal 0 1 0
    outer loop
      vertex 27.135 -20 9.27248
      vertex 38 -20 2
      vertex 26.7725 -20 9.12236
    endloop
  endfacet
  facet normal 0 1 0
    outer loop
      vertex 27.4695 -20 9.47746
      vertex 38 -20 2
      vertex 27.135 -20 9.27248
    endloop
  endfacet
  facet normal 0 1 0
    outer loop
      vertex 27.7678 -20 9.73223
      vertex 38 -20 2
      vertex 27.4695 -20 9.47746
    endloop
  endfacet
  facet normal 0 1 0
    outer loop
      vertex 28.0225 -20 10.0305
      vertex 38 -20 2
      vertex 27.7678 -20 9.73223
    endloop
  endfacet
  facet normal 0 1 0
    outer loop
      vertex 28.2275 -20 10.365
      vertex 38 -20 2
      vertex 28.0225 -20 10.0305
    endloop
  endfacet
  facet normal 0 1 0
    outer loop
      vertex 25.2275 -20 13.8776
      vertex 38 -20 26
      vertex 25.6089 -20 13.9692
    endloop
  endfacet
  facet normal 0 1 -0
    outer loop
      vertex 12.1089 -20 13.9692
      vertex 2 -20 26
      vertex 12.5 -20 14
    endloop
  endfacet
  facet normal 0 1 -0
    outer loop
      vertex 11.7275 -20 13.8776
      vertex 2 -20 26
      vertex 12.1089 -20 13.9692
    endloop
  endfacet
  facet normal 0 1 -0
    outer loop
      vertex 11.365 -20 13.7275
      vertex 2 -20 26
      vertex 11.7275 -20 13.8776
    endloop
  endfacet
  facet normal 0 1 -0
    outer loop
      vertex 11.0305 -20 13.5225
      vertex 2 -20 26
      vertex 11.365 -20 13.7275
    endloop
  endfacet
  facet normal 0 1 -0
    outer loop
      vertex 10.7322 -20 13.2678
      vertex 2 -20 26
      vertex 11.0305 -20 13.5225
    endloop
  endfacet
  facet normal 0 1 -0
    outer loop
      vertex 10.4775 -20 12.9695
      vertex 2 -20 26
      vertex 10.7322 -20 13.2678
    endloop
  endfacet
  facet normal 0 1 -0
    outer loop
      vertex 10.2725 -20 12.635
      vertex 2 -20 26
      vertex 10.4775 -20 12.9695
    endloop
  endfacet
  facet normal 0 1 -0
    outer loop
      vertex 10.1224 -20 12.2725
      vertex 2 -20 26
      vertex 10.2725 -20 12.635
    endloop
  endfacet
  facet normal 0 1 -0
    outer loop
      vertex 10.0308 -20 11.8911
      vertex 2 -20 26
      vertex 10.1224 -20 12.2725
    endloop
  endfacet
  facet normal 0 1 0
    outer loop
      vertex 2 -20 2
      vertex 10.0308 -20 11.8911
      vertex 10 -20 11.5
    endloop
  endfacet
  facet normal 0 1 0
    outer loop
      vertex 2 -20 2
      vertex 10 -20 11.5
      vertex 10.0308 -20 11.1089
    endloop
  endfacet
  facet normal 0 1 0
    outer loop
      vertex 2 -20 2
      vertex 10.0308 -20 11.1089
      vertex 10.1224 -20 10.7275
    endloop
  endfacet
  facet normal 0 1 0
    outer loop
      vertex 2 -20 2
      vertex 10.1224 -20 10.7275
      vertex 10.2725 -20 10.365
    endloop
  endfacet
  facet normal 0 1 0
    outer loop
      vertex 12.8911 -20 9.03078
      vertex 2 -20 2
      vertex 12.5 -20 9
    endloop
  endfacet
  facet normal 0 1 0
    outer loop
      vertex 12.5 -20 9
      vertex 2 -20 2
      vertex 12.1089 -20 9.03078
    endloop
  endfacet
  facet normal 0 1 0
    outer loop
      vertex 10.0308 -20 11.8911
      vertex 2 -20 2
      vertex 2 -20 26
    endloop
  endfacet
  facet normal 0 1 0
    outer loop
      vertex 10.4775 -20 10.0305
      vertex 2 -20 2
      vertex 10.2725 -20 10.365
    endloop
  endfacet
  facet normal 0 1 0
    outer loop
      vertex 10.7322 -20 9.73223
      vertex 2 -20 2
      vertex 10.4775 -20 10.0305
    endloop
  endfacet
  facet normal 0 1 0
    outer loop
      vertex 11.0305 -20 9.47746
      vertex 2 -20 2
      vertex 10.7322 -20 9.73223
    endloop
  endfacet
  facet normal 0 1 0
    outer loop
      vertex 11.365 -20 9.27248
      vertex 2 -20 2
      vertex 11.0305 -20 9.47746
    endloop
  endfacet
  facet normal 0 1 0
    outer loop
      vertex 11.7275 -20 9.12236
      vertex 2 -20 2
      vertex 11.365 -20 9.27248
    endloop
  endfacet
  facet normal 0 1 0
    outer loop
      vertex 12.1089 -20 9.03078
      vertex 2 -20 2
      vertex 11.7275 -20 9.12236
    endloop
  endfacet
  facet normal -0.97235 0 0.233527
    outer loop
      vertex 14.8776 -22 10.7275
      vertex 14.9692 -20 11.1089
      vertex 14.8776 -20 10.7275
    endloop
  endfacet
  facet normal -0.97235 0 0.233527
    outer loop
      vertex 14.9692 -20 11.1089
      vertex 14.8776 -22 10.7275
      vertex 14.9692 -22 11.1089
    endloop
  endfacet
  facet normal -0.996913 0 0.0785092
    outer loop
      vertex 14.9692 -22 11.1089
      vertex 15 -20 11.5
      vertex 14.9692 -20 11.1089
    endloop
  endfacet
  facet normal -0.996913 0 0.0785092
    outer loop
      vertex 15 -20 11.5
      vertex 14.9692 -22 11.1089
      vertex 15 -22 11.5
    endloop
  endfacet
  facet normal -0.923927 0 0.382569
    outer loop
      vertex 14.7275 -22 10.365
      vertex 14.8776 -20 10.7275
      vertex 14.7275 -20 10.365
    endloop
  endfacet
  facet normal -0.923927 0 0.382569
    outer loop
      vertex 14.8776 -20 10.7275
      vertex 14.7275 -22 10.365
      vertex 14.8776 -22 10.7275
    endloop
  endfacet
  facet normal -0.233479 0 0.972362
    outer loop
      vertex 12.8911 -20 9.03078
      vertex 13.2725 -22 9.12236
      vertex 13.2725 -20 9.12236
    endloop
  endfacet
  facet normal -0.233479 0 0.972362
    outer loop
      vertex 13.2725 -22 9.12236
      vertex 12.8911 -20 9.03078
      vertex 12.8911 -22 9.03078
    endloop
  endfacet
  facet normal -0.85262 0 0.522532
    outer loop
      vertex 14.5225 -22 10.0305
      vertex 14.7275 -20 10.365
      vertex 14.5225 -20 10.0305
    endloop
  endfacet
  facet normal -0.85262 0 0.522532
    outer loop
      vertex 14.7275 -20 10.365
      vertex 14.5225 -22 10.0305
      vertex 14.7275 -22 10.365
    endloop
  endfacet
  facet normal 0.923927 0 -0.382569
    outer loop
      vertex 10.2725 -22 12.635
      vertex 10.1224 -20 12.2725
      vertex 10.2725 -20 12.635
    endloop
  endfacet
  facet normal 0.923927 0 -0.382569
    outer loop
      vertex 10.1224 -20 12.2725
      vertex 10.2725 -22 12.635
      vertex 10.1224 -22 12.2725
    endloop
  endfacet
  facet normal 0.233479 0 0.972362
    outer loop
      vertex 11.7275 -20 9.12236
      vertex 12.1089 -22 9.03078
      vertex 12.1089 -20 9.03078
    endloop
  endfacet
  facet normal 0.233479 0 0.972362
    outer loop
      vertex 12.1089 -22 9.03078
      vertex 11.7275 -20 9.12236
      vertex 11.7275 -22 9.12236
    endloop
  endfacet
  facet normal -0.233527 0 -0.97235
    outer loop
      vertex 12.8911 -22 13.9692
      vertex 13.2725 -20 13.8776
      vertex 13.2725 -22 13.8776
    endloop
  endfacet
  facet normal -0.233527 0 -0.97235
    outer loop
      vertex 13.2725 -20 13.8776
      vertex 12.8911 -22 13.9692
      vertex 12.8911 -20 13.9692
    endloop
  endfacet
  facet normal -0.97235 0 -0.233527
    outer loop
      vertex 14.9692 -22 11.8911
      vertex 14.8776 -20 12.2725
      vertex 14.9692 -20 11.8911
    endloop
  endfacet
  facet normal -0.97235 -0 -0.233527
    outer loop
      vertex 14.8776 -20 12.2725
      vertex 14.9692 -22 11.8911
      vertex 14.8776 -22 12.2725
    endloop
  endfacet
  facet normal 0.382569 0 -0.923927
    outer loop
      vertex 11.365 -22 13.7275
      vertex 11.7275 -20 13.8776
      vertex 11.7275 -22 13.8776
    endloop
  endfacet
  facet normal 0.382569 0 -0.923927
    outer loop
      vertex 11.7275 -20 13.8776
      vertex 11.365 -22 13.7275
      vertex 11.365 -20 13.7275
    endloop
  endfacet
  facet normal 0.760465 -0 0.649379
    outer loop
      vertex 10.4775 -22 10.0305
      vertex 10.7322 -20 9.73223
      vertex 10.4775 -20 10.0305
    endloop
  endfacet
  facet normal 0.760465 0 0.649379
    outer loop
      vertex 10.7322 -20 9.73223
      vertex 10.4775 -22 10.0305
      vertex 10.7322 -22 9.73223
    endloop
  endfacet
  facet normal 0.97235 -0 0.233527
    outer loop
      vertex 10.0308 -22 11.1089
      vertex 10.1224 -20 10.7275
      vertex 10.0308 -20 11.1089
    endloop
  endfacet
  facet normal 0.97235 0 0.233527
    outer loop
      vertex 10.1224 -20 10.7275
      vertex 10.0308 -22 11.1089
      vertex 10.1224 -22 10.7275
    endloop
  endfacet
  facet normal -0.0785092 0 -0.996913
    outer loop
      vertex 12.5 -22 14
      vertex 12.8911 -20 13.9692
      vertex 12.8911 -22 13.9692
    endloop
  endfacet
  facet normal -0.0785092 0 -0.996913
    outer loop
      vertex 12.8911 -20 13.9692
      vertex 12.5 -22 14
      vertex 12.5 -20 14
    endloop
  endfacet
  facet normal 0.382613 0 0.923909
    outer loop
      vertex 11.365 -20 9.27248
      vertex 11.7275 -22 9.12236
      vertex 11.7275 -20 9.12236
    endloop
  endfacet
  facet normal 0.382613 0 0.923909
    outer loop
      vertex 11.7275 -22 9.12236
      vertex 11.365 -20 9.27248
      vertex 11.365 -22 9.27248
    endloop
  endfacet
  facet normal 0.996913 0 -0.0785092
    outer loop
      vertex 10.0308 -22 11.8911
      vertex 10 -20 11.5
      vertex 10.0308 -20 11.8911
    endloop
  endfacet
  facet normal 0.996913 0 -0.0785092
    outer loop
      vertex 10 -20 11.5
      vertex 10.0308 -22 11.8911
      vertex 10 -22 11.5
    endloop
  endfacet
  facet normal -0.0784585 0 0.996917
    outer loop
      vertex 12.5 -20 9
      vertex 12.8911 -22 9.03078
      vertex 12.8911 -20 9.03078
    endloop
  endfacet
  facet normal -0.0784585 0 0.996917
    outer loop
      vertex 12.8911 -22 9.03078
      vertex 12.5 -20 9
      vertex 12.5 -22 9
    endloop
  endfacet
  facet normal -0.996913 0 -0.0785092
    outer loop
      vertex 15 -22 11.5
      vertex 14.9692 -20 11.8911
      vertex 15 -20 11.5
    endloop
  endfacet
  facet normal -0.996913 -0 -0.0785092
    outer loop
      vertex 14.9692 -20 11.8911
      vertex 15 -22 11.5
      vertex 14.9692 -22 11.8911
    endloop
  endfacet
  facet normal -0.382613 0 0.923909
    outer loop
      vertex 13.2725 -20 9.12236
      vertex 13.635 -22 9.27248
      vertex 13.635 -20 9.27248
    endloop
  endfacet
  facet normal -0.382613 0 0.923909
    outer loop
      vertex 13.635 -22 9.27248
      vertex 13.2725 -20 9.12236
      vertex 13.2725 -22 9.12236
    endloop
  endfacet
  facet normal 0.760497 0 -0.649342
    outer loop
      vertex 10.7322 -22 13.2678
      vertex 10.4775 -20 12.9695
      vertex 10.7322 -20 13.2678
    endloop
  endfacet
  facet normal 0.760497 0 -0.649342
    outer loop
      vertex 10.4775 -20 12.9695
      vertex 10.7322 -22 13.2678
      vertex 10.4775 -22 12.9695
    endloop
  endfacet
  facet normal -0.923927 0 -0.382569
    outer loop
      vertex 14.8776 -22 12.2725
      vertex 14.7275 -20 12.635
      vertex 14.8776 -20 12.2725
    endloop
  endfacet
  facet normal -0.923927 -0 -0.382569
    outer loop
      vertex 14.7275 -20 12.635
      vertex 14.8776 -22 12.2725
      vertex 14.7275 -22 12.635
    endloop
  endfacet
  facet normal -0.85262 0 -0.522532
    outer loop
      vertex 14.7275 -22 12.635
      vertex 14.5225 -20 12.9695
      vertex 14.7275 -20 12.635
    endloop
  endfacet
  facet normal -0.85262 -0 -0.522532
    outer loop
      vertex 14.5225 -20 12.9695
      vertex 14.7275 -22 12.635
      vertex 14.5225 -22 12.9695
    endloop
  endfacet
  facet normal -0.382569 0 -0.923927
    outer loop
      vertex 13.2725 -22 13.8776
      vertex 13.635 -20 13.7275
      vertex 13.635 -22 13.7275
    endloop
  endfacet
  facet normal -0.382569 0 -0.923927
    outer loop
      vertex 13.635 -20 13.7275
      vertex 13.2725 -22 13.8776
      vertex 13.2725 -20 13.8776
    endloop
  endfacet
  facet normal -0.649445 0 0.760409
    outer loop
      vertex 13.9695 -20 9.47746
      vertex 14.2678 -22 9.73223
      vertex 14.2678 -20 9.73223
    endloop
  endfacet
  facet normal -0.649445 0 0.760409
    outer loop
      vertex 14.2678 -22 9.73223
      vertex 13.9695 -20 9.47746
      vertex 13.9695 -22 9.47746
    endloop
  endfacet
  facet normal 0.649445 0 0.760409
    outer loop
      vertex 10.7322 -20 9.73223
      vertex 11.0305 -22 9.47746
      vertex 11.0305 -20 9.47746
    endloop
  endfacet
  facet normal 0.649445 0 0.760409
    outer loop
      vertex 11.0305 -22 9.47746
      vertex 10.7322 -20 9.73223
      vertex 10.7322 -22 9.73223
    endloop
  endfacet
  facet normal -0.522495 0 0.852642
    outer loop
      vertex 13.635 -20 9.27248
      vertex 13.9695 -22 9.47746
      vertex 13.9695 -20 9.47746
    endloop
  endfacet
  facet normal -0.522495 0 0.852642
    outer loop
      vertex 13.9695 -22 9.47746
      vertex 13.635 -20 9.27248
      vertex 13.635 -22 9.27248
    endloop
  endfacet
  facet normal 0.233527 0 -0.97235
    outer loop
      vertex 11.7275 -22 13.8776
      vertex 12.1089 -20 13.9692
      vertex 12.1089 -22 13.9692
    endloop
  endfacet
  facet normal 0.233527 0 -0.97235
    outer loop
      vertex 12.1089 -20 13.9692
      vertex 11.7275 -22 13.8776
      vertex 11.7275 -20 13.8776
    endloop
  endfacet
  facet normal -0.760465 0 0.649379
    outer loop
      vertex 14.2678 -22 9.73223
      vertex 14.5225 -20 10.0305
      vertex 14.2678 -20 9.73223
    endloop
  endfacet
  facet normal -0.760465 0 0.649379
    outer loop
      vertex 14.5225 -20 10.0305
      vertex 14.2678 -22 9.73223
      vertex 14.5225 -22 10.0305
    endloop
  endfacet
  facet normal 0.522532 0 -0.85262
    outer loop
      vertex 11.0305 -22 13.5225
      vertex 11.365 -20 13.7275
      vertex 11.365 -22 13.7275
    endloop
  endfacet
  facet normal 0.522532 0 -0.85262
    outer loop
      vertex 11.365 -20 13.7275
      vertex 11.0305 -22 13.5225
      vertex 11.0305 -20 13.5225
    endloop
  endfacet
  facet normal 0.97235 0 -0.233527
    outer loop
      vertex 10.1224 -22 12.2725
      vertex 10.0308 -20 11.8911
      vertex 10.1224 -20 12.2725
    endloop
  endfacet
  facet normal 0.97235 0 -0.233527
    outer loop
      vertex 10.0308 -20 11.8911
      vertex 10.1224 -22 12.2725
      vertex 10.0308 -22 11.8911
    endloop
  endfacet
  facet normal -0.649342 0 -0.760497
    outer loop
      vertex 13.9695 -22 13.5225
      vertex 14.2678 -20 13.2678
      vertex 14.2678 -22 13.2678
    endloop
  endfacet
  facet normal -0.649342 0 -0.760497
    outer loop
      vertex 14.2678 -20 13.2678
      vertex 13.9695 -22 13.5225
      vertex 13.9695 -20 13.5225
    endloop
  endfacet
  facet normal 0.0785092 0 -0.996913
    outer loop
      vertex 12.1089 -22 13.9692
      vertex 12.5 -20 14
      vertex 12.5 -22 14
    endloop
  endfacet
  facet normal 0.0785092 0 -0.996913
    outer loop
      vertex 12.5 -20 14
      vertex 12.1089 -22 13.9692
      vertex 12.1089 -20 13.9692
    endloop
  endfacet
  facet normal -0.522532 0 -0.85262
    outer loop
      vertex 13.635 -22 13.7275
      vertex 13.9695 -20 13.5225
      vertex 13.9695 -22 13.5225
    endloop
  endfacet
  facet normal -0.522532 0 -0.85262
    outer loop
      vertex 13.9695 -20 13.5225
      vertex 13.635 -22 13.7275
      vertex 13.635 -20 13.7275
    endloop
  endfacet
  facet normal 0.0784585 0 0.996917
    outer loop
      vertex 12.1089 -20 9.03078
      vertex 12.5 -22 9
      vertex 12.5 -20 9
    endloop
  endfacet
  facet normal 0.0784585 0 0.996917
    outer loop
      vertex 12.5 -22 9
      vertex 12.1089 -20 9.03078
      vertex 12.1089 -22 9.03078
    endloop
  endfacet
  facet normal -0.760497 0 -0.649342
    outer loop
      vertex 14.5225 -22 12.9695
      vertex 14.2678 -20 13.2678
      vertex 14.5225 -20 12.9695
    endloop
  endfacet
  facet normal -0.760497 -0 -0.649342
    outer loop
      vertex 14.2678 -20 13.2678
      vertex 14.5225 -22 12.9695
      vertex 14.2678 -22 13.2678
    endloop
  endfacet
  facet normal 0.85262 0 -0.522532
    outer loop
      vertex 10.4775 -22 12.9695
      vertex 10.2725 -20 12.635
      vertex 10.4775 -20 12.9695
    endloop
  endfacet
  facet normal 0.85262 0 -0.522532
    outer loop
      vertex 10.2725 -20 12.635
      vertex 10.4775 -22 12.9695
      vertex 10.2725 -22 12.635
    endloop
  endfacet
  facet normal 0.649342 0 -0.760497
    outer loop
      vertex 10.7322 -22 13.2678
      vertex 11.0305 -20 13.5225
      vertex 11.0305 -22 13.5225
    endloop
  endfacet
  facet normal 0.649342 0 -0.760497
    outer loop
      vertex 11.0305 -20 13.5225
      vertex 10.7322 -22 13.2678
      vertex 10.7322 -20 13.2678
    endloop
  endfacet
  facet normal 0.996913 -0 0.0785092
    outer loop
      vertex 10 -22 11.5
      vertex 10.0308 -20 11.1089
      vertex 10 -20 11.5
    endloop
  endfacet
  facet normal 0.996913 0 0.0785092
    outer loop
      vertex 10.0308 -20 11.1089
      vertex 10 -22 11.5
      vertex 10.0308 -22 11.1089
    endloop
  endfacet
  facet normal 0.923927 -0 0.382569
    outer loop
      vertex 10.1224 -22 10.7275
      vertex 10.2725 -20 10.365
      vertex 10.1224 -20 10.7275
    endloop
  endfacet
  facet normal 0.923927 0 0.382569
    outer loop
      vertex 10.2725 -20 10.365
      vertex 10.1224 -22 10.7275
      vertex 10.2725 -22 10.365
    endloop
  endfacet
  facet normal 0.85262 -0 0.522532
    outer loop
      vertex 10.2725 -22 10.365
      vertex 10.4775 -20 10.0305
      vertex 10.2725 -20 10.365
    endloop
  endfacet
  facet normal 0.85262 0 0.522532
    outer loop
      vertex 10.4775 -20 10.0305
      vertex 10.2725 -22 10.365
      vertex 10.4775 -22 10.0305
    endloop
  endfacet
  facet normal 0.522495 0 0.852642
    outer loop
      vertex 11.0305 -20 9.47746
      vertex 11.365 -22 9.27248
      vertex 11.365 -20 9.27248
    endloop
  endfacet
  facet normal 0.522495 0 0.852642
    outer loop
      vertex 11.365 -22 9.27248
      vertex 11.0305 -20 9.47746
      vertex 11.0305 -22 9.47746
    endloop
  endfacet
  facet normal -0.97235 0 0.233527
    outer loop
      vertex 28.3776 -22 10.7275
      vertex 28.4692 -20 11.1089
      vertex 28.3776 -20 10.7275
    endloop
  endfacet
  facet normal -0.97235 0 0.233527
    outer loop
      vertex 28.4692 -20 11.1089
      vertex 28.3776 -22 10.7275
      vertex 28.4692 -22 11.1089
    endloop
  endfacet
  facet normal -0.996913 0 0.0785092
    outer loop
      vertex 28.4692 -22 11.1089
      vertex 28.5 -20 11.5
      vertex 28.4692 -20 11.1089
    endloop
  endfacet
  facet normal -0.996913 0 0.0785092
    outer loop
      vertex 28.5 -20 11.5
      vertex 28.4692 -22 11.1089
      vertex 28.5 -22 11.5
    endloop
  endfacet
  facet normal -0.923927 0 0.382569
    outer loop
      vertex 28.2275 -22 10.365
      vertex 28.3776 -20 10.7275
      vertex 28.2275 -20 10.365
    endloop
  endfacet
  facet normal -0.923927 0 0.382569
    outer loop
      vertex 28.3776 -20 10.7275
      vertex 28.2275 -22 10.365
      vertex 28.3776 -22 10.7275
    endloop
  endfacet
  facet normal -0.233479 0 0.972362
    outer loop
      vertex 26.3911 -20 9.03078
      vertex 26.7725 -22 9.12236
      vertex 26.7725 -20 9.12236
    endloop
  endfacet
  facet normal -0.233479 0 0.972362
    outer loop
      vertex 26.7725 -22 9.12236
      vertex 26.3911 -20 9.03078
      vertex 26.3911 -22 9.03078
    endloop
  endfacet
  facet normal -0.85262 0 0.522532
    outer loop
      vertex 28.0225 -22 10.0305
      vertex 28.2275 -20 10.365
      vertex 28.0225 -20 10.0305
    endloop
  endfacet
  facet normal -0.85262 0 0.522532
    outer loop
      vertex 28.2275 -20 10.365
      vertex 28.0225 -22 10.0305
      vertex 28.2275 -22 10.365
    endloop
  endfacet
  facet normal 0.923927 0 -0.382569
    outer loop
      vertex 23.7725 -22 12.635
      vertex 23.6224 -20 12.2725
      vertex 23.7725 -20 12.635
    endloop
  endfacet
  facet normal 0.923927 0 -0.382569
    outer loop
      vertex 23.6224 -20 12.2725
      vertex 23.7725 -22 12.635
      vertex 23.6224 -22 12.2725
    endloop
  endfacet
  facet normal 0.233479 0 0.972362
    outer loop
      vertex 25.2275 -20 9.12236
      vertex 25.6089 -22 9.03078
      vertex 25.6089 -20 9.03078
    endloop
  endfacet
  facet normal 0.233479 0 0.972362
    outer loop
      vertex 25.6089 -22 9.03078
      vertex 25.2275 -20 9.12236
      vertex 25.2275 -22 9.12236
    endloop
  endfacet
  facet normal -0.233527 0 -0.97235
    outer loop
      vertex 26.3911 -22 13.9692
      vertex 26.7725 -20 13.8776
      vertex 26.7725 -22 13.8776
    endloop
  endfacet
  facet normal -0.233527 0 -0.97235
    outer loop
      vertex 26.7725 -20 13.8776
      vertex 26.3911 -22 13.9692
      vertex 26.3911 -20 13.9692
    endloop
  endfacet
  facet normal -0.97235 0 -0.233527
    outer loop
      vertex 28.4692 -22 11.8911
      vertex 28.3776 -20 12.2725
      vertex 28.4692 -20 11.8911
    endloop
  endfacet
  facet normal -0.97235 -0 -0.233527
    outer loop
      vertex 28.3776 -20 12.2725
      vertex 28.4692 -22 11.8911
      vertex 28.3776 -22 12.2725
    endloop
  endfacet
  facet normal 0.382569 0 -0.923927
    outer loop
      vertex 24.865 -22 13.7275
      vertex 25.2275 -20 13.8776
      vertex 25.2275 -22 13.8776
    endloop
  endfacet
  facet normal 0.382569 0 -0.923927
    outer loop
      vertex 25.2275 -20 13.8776
      vertex 24.865 -22 13.7275
      vertex 24.865 -20 13.7275
    endloop
  endfacet
  facet normal 0.760465 -0 0.649379
    outer loop
      vertex 23.9775 -22 10.0305
      vertex 24.2322 -20 9.73223
      vertex 23.9775 -20 10.0305
    endloop
  endfacet
  facet normal 0.760465 0 0.649379
    outer loop
      vertex 24.2322 -20 9.73223
      vertex 23.9775 -22 10.0305
      vertex 24.2322 -22 9.73223
    endloop
  endfacet
  facet normal 0.97235 -0 0.233527
    outer loop
      vertex 23.5308 -22 11.1089
      vertex 23.6224 -20 10.7275
      vertex 23.5308 -20 11.1089
    endloop
  endfacet
  facet normal 0.97235 0 0.233527
    outer loop
      vertex 23.6224 -20 10.7275
      vertex 23.5308 -22 11.1089
      vertex 23.6224 -22 10.7275
    endloop
  endfacet
  facet normal -0.0785092 0 -0.996913
    outer loop
      vertex 26 -22 14
      vertex 26.3911 -20 13.9692
      vertex 26.3911 -22 13.9692
    endloop
  endfacet
  facet normal -0.0785092 0 -0.996913
    outer loop
      vertex 26.3911 -20 13.9692
      vertex 26 -22 14
      vertex 26 -20 14
    endloop
  endfacet
  facet normal 0.382613 0 0.923909
    outer loop
      vertex 24.865 -20 9.27248
      vertex 25.2275 -22 9.12236
      vertex 25.2275 -20 9.12236
    endloop
  endfacet
  facet normal 0.382613 0 0.923909
    outer loop
      vertex 25.2275 -22 9.12236
      vertex 24.865 -20 9.27248
      vertex 24.865 -22 9.27248
    endloop
  endfacet
  facet normal 0.996913 0 -0.0785092
    outer loop
      vertex 23.5308 -22 11.8911
      vertex 23.5 -20 11.5
      vertex 23.5308 -20 11.8911
    endloop
  endfacet
  facet normal 0.996913 0 -0.0785092
    outer loop
      vertex 23.5 -20 11.5
      vertex 23.5308 -22 11.8911
      vertex 23.5 -22 11.5
    endloop
  endfacet
  facet normal -0.0784585 0 0.996917
    outer loop
      vertex 26 -20 9
      vertex 26.3911 -22 9.03078
      vertex 26.3911 -20 9.03078
    endloop
  endfacet
  facet normal -0.0784585 0 0.996917
    outer loop
      vertex 26.3911 -22 9.03078
      vertex 26 -20 9
      vertex 26 -22 9
    endloop
  endfacet
  facet normal -0.996913 0 -0.0785092
    outer loop
      vertex 28.5 -22 11.5
      vertex 28.4692 -20 11.8911
      vertex 28.5 -20 11.5
    endloop
  endfacet
  facet normal -0.996913 -0 -0.0785092
    outer loop
      vertex 28.4692 -20 11.8911
      vertex 28.5 -22 11.5
      vertex 28.4692 -22 11.8911
    endloop
  endfacet
  facet normal -0.382613 0 0.923909
    outer loop
      vertex 26.7725 -20 9.12236
      vertex 27.135 -22 9.27248
      vertex 27.135 -20 9.27248
    endloop
  endfacet
  facet normal -0.382613 0 0.923909
    outer loop
      vertex 27.135 -22 9.27248
      vertex 26.7725 -20 9.12236
      vertex 26.7725 -22 9.12236
    endloop
  endfacet
  facet normal 0.760497 0 -0.649342
    outer loop
      vertex 24.2322 -22 13.2678
      vertex 23.9775 -20 12.9695
      vertex 24.2322 -20 13.2678
    endloop
  endfacet
  facet normal 0.760497 0 -0.649342
    outer loop
      vertex 23.9775 -20 12.9695
      vertex 24.2322 -22 13.2678
      vertex 23.9775 -22 12.9695
    endloop
  endfacet
  facet normal -0.923927 0 -0.382569
    outer loop
      vertex 28.3776 -22 12.2725
      vertex 28.2275 -20 12.635
      vertex 28.3776 -20 12.2725
    endloop
  endfacet
  facet normal -0.923927 -0 -0.382569
    outer loop
      vertex 28.2275 -20 12.635
      vertex 28.3776 -22 12.2725
      vertex 28.2275 -22 12.635
    endloop
  endfacet
  facet normal -0.85262 0 -0.522532
    outer loop
      vertex 28.2275 -22 12.635
      vertex 28.0225 -20 12.9695
      vertex 28.2275 -20 12.635
    endloop
  endfacet
  facet normal -0.85262 -0 -0.522532
    outer loop
      vertex 28.0225 -20 12.9695
      vertex 28.2275 -22 12.635
      vertex 28.0225 -22 12.9695
    endloop
  endfacet
  facet normal -0.382569 0 -0.923927
    outer loop
      vertex 26.7725 -22 13.8776
      vertex 27.135 -20 13.7275
      vertex 27.135 -22 13.7275
    endloop
  endfacet
  facet normal -0.382569 0 -0.923927
    outer loop
      vertex 27.135 -20 13.7275
      vertex 26.7725 -22 13.8776
      vertex 26.7725 -20 13.8776
    endloop
  endfacet
  facet normal -0.649445 0 0.760409
    outer loop
      vertex 27.4695 -20 9.47746
      vertex 27.7678 -22 9.73223
      vertex 27.7678 -20 9.73223
    endloop
  endfacet
  facet normal -0.649445 0 0.760409
    outer loop
      vertex 27.7678 -22 9.73223
      vertex 27.4695 -20 9.47746
      vertex 27.4695 -22 9.47746
    endloop
  endfacet
  facet normal 0.649445 0 0.760409
    outer loop
      vertex 24.2322 -20 9.73223
      vertex 24.5305 -22 9.47746
      vertex 24.5305 -20 9.47746
    endloop
  endfacet
  facet normal 0.649445 0 0.760409
    outer loop
      vertex 24.5305 -22 9.47746
      vertex 24.2322 -20 9.73223
      vertex 24.2322 -22 9.73223
    endloop
  endfacet
  facet normal -0.522495 0 0.852642
    outer loop
      vertex 27.135 -20 9.27248
      vertex 27.4695 -22 9.47746
      vertex 27.4695 -20 9.47746
    endloop
  endfacet
  facet normal -0.522495 0 0.852642
    outer loop
      vertex 27.4695 -22 9.47746
      vertex 27.135 -20 9.27248
      vertex 27.135 -22 9.27248
    endloop
  endfacet
  facet normal 0.233527 0 -0.97235
    outer loop
      vertex 25.2275 -22 13.8776
      vertex 25.6089 -20 13.9692
      vertex 25.6089 -22 13.9692
    endloop
  endfacet
  facet normal 0.233527 0 -0.97235
    outer loop
      vertex 25.6089 -20 13.9692
      vertex 25.2275 -22 13.8776
      vertex 25.2275 -20 13.8776
    endloop
  endfacet
  facet normal -0.760465 0 0.649379
    outer loop
      vertex 27.7678 -22 9.73223
      vertex 28.0225 -20 10.0305
      vertex 27.7678 -20 9.73223
    endloop
  endfacet
  facet normal -0.760465 0 0.649379
    outer loop
      vertex 28.0225 -20 10.0305
      vertex 27.7678 -22 9.73223
      vertex 28.0225 -22 10.0305
    endloop
  endfacet
  facet normal 0.522532 0 -0.85262
    outer loop
      vertex 24.5305 -22 13.5225
      vertex 24.865 -20 13.7275
      vertex 24.865 -22 13.7275
    endloop
  endfacet
  facet normal 0.522532 0 -0.85262
    outer loop
      vertex 24.865 -20 13.7275
      vertex 24.5305 -22 13.5225
      vertex 24.5305 -20 13.5225
    endloop
  endfacet
  facet normal 0.97235 0 -0.233527
    outer loop
      vertex 23.6224 -22 12.2725
      vertex 23.5308 -20 11.8911
      vertex 23.6224 -20 12.2725
    endloop
  endfacet
  facet normal 0.97235 0 -0.233527
    outer loop
      vertex 23.5308 -20 11.8911
      vertex 23.6224 -22 12.2725
      vertex 23.5308 -22 11.8911
    endloop
  endfacet
  facet normal -0.649342 0 -0.760497
    outer loop
      vertex 27.4695 -22 13.5225
      vertex 27.7678 -20 13.2678
      vertex 27.7678 -22 13.2678
    endloop
  endfacet
  facet normal -0.649342 0 -0.760497
    outer loop
      vertex 27.7678 -20 13.2678
      vertex 27.4695 -22 13.5225
      vertex 27.4695 -20 13.5225
    endloop
  endfacet
  facet normal 0.0785092 0 -0.996913
    outer loop
      vertex 25.6089 -22 13.9692
      vertex 26 -20 14
      vertex 26 -22 14
    endloop
  endfacet
  facet normal 0.0785092 0 -0.996913
    outer loop
      vertex 26 -20 14
      vertex 25.6089 -22 13.9692
      vertex 25.6089 -20 13.9692
    endloop
  endfacet
  facet normal -0.522532 0 -0.85262
    outer loop
      vertex 27.135 -22 13.7275
      vertex 27.4695 -20 13.5225
      vertex 27.4695 -22 13.5225
    endloop
  endfacet
  facet normal -0.522532 0 -0.85262
    outer loop
      vertex 27.4695 -20 13.5225
      vertex 27.135 -22 13.7275
      vertex 27.135 -20 13.7275
    endloop
  endfacet
  facet normal 0.0784585 0 0.996917
    outer loop
      vertex 25.6089 -20 9.03078
      vertex 26 -22 9
      vertex 26 -20 9
    endloop
  endfacet
  facet normal 0.0784585 0 0.996917
    outer loop
      vertex 26 -22 9
      vertex 25.6089 -20 9.03078
      vertex 25.6089 -22 9.03078
    endloop
  endfacet
  facet normal -0.760497 0 -0.649342
    outer loop
      vertex 28.0225 -22 12.9695
      vertex 27.7678 -20 13.2678
      vertex 28.0225 -20 12.9695
    endloop
  endfacet
  facet normal -0.760497 -0 -0.649342
    outer loop
      vertex 27.7678 -20 13.2678
      vertex 28.0225 -22 12.9695
      vertex 27.7678 -22 13.2678
    endloop
  endfacet
  facet normal 0.85262 0 -0.522532
    outer loop
      vertex 23.9775 -22 12.9695
      vertex 23.7725 -20 12.635
      vertex 23.9775 -20 12.9695
    endloop
  endfacet
  facet normal 0.85262 0 -0.522532
    outer loop
      vertex 23.7725 -20 12.635
      vertex 23.9775 -22 12.9695
      vertex 23.7725 -22 12.635
    endloop
  endfacet
  facet normal 0.649342 0 -0.760497
    outer loop
      vertex 24.2322 -22 13.2678
      vertex 24.5305 -20 13.5225
      vertex 24.5305 -22 13.5225
    endloop
  endfacet
  facet normal 0.649342 0 -0.760497
    outer loop
      vertex 24.5305 -20 13.5225
      vertex 24.2322 -22 13.2678
      vertex 24.2322 -20 13.2678
    endloop
  endfacet
  facet normal 0.996913 -0 0.0785092
    outer loop
      vertex 23.5 -22 11.5
      vertex 23.5308 -20 11.1089
      vertex 23.5 -20 11.5
    endloop
  endfacet
  facet normal 0.996913 0 0.0785092
    outer loop
      vertex 23.5308 -20 11.1089
      vertex 23.5 -22 11.5
      vertex 23.5308 -22 11.1089
    endloop
  endfacet
  facet normal 0.923927 -0 0.382569
    outer loop
      vertex 23.6224 -22 10.7275
      vertex 23.7725 -20 10.365
      vertex 23.6224 -20 10.7275
    endloop
  endfacet
  facet normal 0.923927 0 0.382569
    outer loop
      vertex 23.7725 -20 10.365
      vertex 23.6224 -22 10.7275
      vertex 23.7725 -22 10.365
    endloop
  endfacet
  facet normal 0.85262 -0 0.522532
    outer loop
      vertex 23.7725 -22 10.365
      vertex 23.9775 -20 10.0305
      vertex 23.7725 -20 10.365
    endloop
  endfacet
  facet normal 0.85262 0 0.522532
    outer loop
      vertex 23.9775 -20 10.0305
      vertex 23.7725 -22 10.365
      vertex 23.9775 -22 10.0305
    endloop
  endfacet
  facet normal 0.522495 0 0.852642
    outer loop
      vertex 24.5305 -20 9.47746
      vertex 24.865 -22 9.27248
      vertex 24.865 -20 9.27248
    endloop
  endfacet
  facet normal 0.522495 0 0.852642
    outer loop
      vertex 24.865 -22 9.27248
      vertex 24.5305 -20 9.47746
      vertex 24.5305 -22 9.47746
    endloop
  endfacet
endsolid OpenSCAD_Model
